<svg height="617.42723pt" preserveAspectRatio="xMidYMid meet" viewBox="0 0 533.924102 617.42723" width="533.924102pt" xmlns="http://www.w3.org/2000/svg"><path d="m2531 6474c-148-25-271-66-415-137-363-181-634-466-771-809-78-195-90-259-90-467 0-167 3-193 29-286 62-224 150-384 290-523 222-221 508-348 850-378 242-21 479 31 688 151 178 102 269 264 269 480 0 131-32 218-107 290-48 47-101 67-180 67-89 0-148-32-240-127-129-136-287-184-465-142-94 22-204 76-282 138-51 40-68 63-105 139-44 91-44 91-43 212 0 98 5 133 24 189 73 206 290 401 538 484 178 60 366 45 512-39 347-202 557-514 656-976 45-209 54-300 54-561-1-314-22-482-110-845-94-387-179-629-406-1155-166-384-301-713-388-948l-83-223-6 176c-8 224-37 323-168 582-95 186-192 326-311 445-265 269-575 448-888 514-199 42-433 40-522-5l-42-22v-65c1-36 9-106 20-155 10-49 34-165 52-257 72-355 97-440 195-641 83-170 171-295 300-426 273-278 675-475 1124-551 54-9 101-18 102-20 2-1-23-92-54-201-54-184-101-361-101-376 0-3 168-5 374-4l373 3 57 200c118 412 213 679 495 1396 109 277 210 534 224 571s34 72 43 78c13 8 56 6 152-7 373-50 581-59 771-33 268 36 495 114 726 250 134 79 246 167 377 296 184 181 274 334 335 567 18 70 35 169 38 221 6 83 4 97-13 117-18 20-164 81-261 108-67 19-333 26-457 12-589-67-1045-319-1400-773-44-57-71-84-67-68 212 823 242 1512 92 2092-106 411-329 793-613 1053-209 189-466 330-689 378-110 24-370 29-483 11z" transform="matrix(.095238 0 0 -.095238 -78 617.609596)"/></svg>