<svg clip-rule="evenodd" fill-rule="evenodd" stroke-linejoin="round" stroke-miterlimit="2" viewBox="0 0 57 57" xmlns="http://www.w3.org/2000/svg"><path d="m0 0h57v57h-57z" fill="none"/><g fill-rule="nonzero"><path d="m0 3.153c-.485 6.121-13.365 13.374-18.881 16.07s-21.153 6.549-26.242 3.112c-5.088-3.435-7.129-13.903-3.995-19.182 10.826-18.232 8.291-18.959 12.28-21.269 7.777-4.503 15.556 1.176 20.873 4.246 5.318 3.069 16.45 10.902 15.965 17.023" fill="#a8d36f" transform="matrix(.983481 .180997 -.180996 .983484 54.602371 29.767139)"/><g fill="#30343a"><path d="m0-45.789c1.042-.049 2.152.134 2.899.927.726.811 1.227 1.871 1.308 3.029.085 1.146-.284 2.424-1.175 3.286-.853.857-1.957 1.404-3.129 1.609-1.951.338-3.977-.069-5.633-1.264-1.568-1.37-2.396-3.438-2.088-5.449.256-2.052 1.339-3.871 2.832-5.205 1.46-1.365 3.508-2.191 5.605-2.059 2.659.342 4.845 1.865 6.448 3.782 1.672 2.009 2.64 4.476 3.159 6.956.804 3.884.602 7.825.128 11.657-.597 4.533-1.794 8.821-2.354 13.228-.555 3.904-.779 7.827-.44 11.76.161 2.072.344 4.161.61 6.257.087.622.187 1.443-.059 1.753-.28.353-.579.78-.939.505-.222-.17-.265-.771-.3-1.277l-.467-4.995c-.27-2.761-.437-5.592-.257-8.386.142-2.325.397-4.639.755-6.924.333-2.126.748-4.239 1.233-6.323.634-2.797 1.343-5.462 1.572-8.291.073-.592.109-1.189.141-1.777.262-3.486-.151-7.088-1.555-10.254-.839-1.884-2.009-3.668-3.684-4.855-.815-.619-2.015-1.194-2.985-1.512-.963-.261-1.977-.303-2.959-.063-2.156.593-4.073 2.22-4.966 4.304-.451 1.033-.564 2-.407 3.1.118 1.102.749 2.131 1.467 2.89 1.16.987 2.824 1.46 4.374 1.375 1.529-.075 3.109-1.153 3.78-2.432.786-1.516.128-3.127-1.203-4.128-1.249-1.048-3.563-.488-3.943 1.03-.246.914.055 1.48.062 1.907 0 .229-.066.344-.272.278-.202-.054-.235-.4-.433-.973-.573-1.65.411-3.426 2.875-3.466" transform="matrix(.983481 .180997 -.180996 .983484 16.515582 50.420247)"/><path d="m0-.039c-1.272 1.638-3.889 3.601-5.441 4.127-1.327.456-4.981.808-5.091.805-.084-.002-.104-.053-.088-.263.061-.848.329-1.678.658-2.467.526-1.232 1.132-2.6 2.078-3.605.932-.955 1.94-1.855 3.088-2.561 1.371-.839 2.93-1.387 4.243-1.435.395-.015 1.192.533 1.453 1.1.468 1.011-.337 3.573-.9 4.299m2.27-5.816c-.002-.001-.004.002-.005.002-.22-.127-.776-.117-1.171-.25-1.689-.417-5.616.664-8.199 2.722-1.478 1.177-2.688 2.696-3.533 4.407-.216.37-.348.779-.507 1.177-.173.393-.283.808-.373 1.23-.111.416-.559 2.893-.464 2.945.187.103.565-.39.764-.386.989.015 3.647-.198 4.399-.348 6.032-1.205 8.434-6.015 8.68-6.539.698-1.485.661-2.684.697-3.707.006-.21-.083-1.179-.288-1.253" transform="matrix(.983481 .180997 -.180996 .983484 42.320183 26.44533)"/><path d="m0 2.779c-.053-.062-.14-.243-.068-.354.412-.645 1.627-1.689 2.554-2.463.103-.088.218-.073.311.024.079.081.268.279.159.421-.182.236-2.184 2.181-2.438 2.335-.207.126-.41.163-.518.037" transform="matrix(.983481 .180997 -.180996 .983484 33.374608 25.716872)"/><path d="m0-1.468c.278-.082.32.009.431.15.046.059.105.245-.001.326-.124.094-1.051.941-1.517 1.054-.083.02-.251.012-.335-.061-.125-.107-.167-.261-.108-.365.242-.428 1.466-1.085 1.53-1.104" transform="matrix(.983481 .180997 -.180996 .983484 40.407633 25.064456)"/><path d="m0 9.939c-.058.135-.333.542-.719.601-.564.086-2.916-.363-3.574-.603-.99-.36-2.019-.669-2.873-1.301-.618-.471-1.249-.942-1.745-1.542-.59-.586-1.044-1.305-1.44-2.031-.207-.465-.408-.918-.61-1.372l-.456-1.439c-.088-.292-.426-.786-.205-1.17.205-.358.211-.566.206-.713-.01-.272.124-.547.369-.576.103-.011.207-.015.31-.019 1.071-.044 2.173.15 3.242.442 1.185.334 2.262.992 3.274 1.701 1.43 1.029 2.585 2.438 3.344 4.018.189.349.334.713.44 1.094.127.372.249.745.301 1.136.064.386.137.768.178 1.161.013.134.049.401-.042.613m1.002.079s-.222-2.902-.565-3.812c-.568-1.418-1.483-2.644-2.492-3.749-.978-1.093-2.229-1.902-3.528-2.536-1.561-.762-3.293-1.161-4.755-1.136-.867-.012-2.605.179-3.215.789-.316.314 1.003 2.93 1.128 3.329.463 1.515 1.257 2.956 2.3 4.2 1.18 1.402 2.757 2.48 4.47 3.106 1.462.525 2.985.858 4.529.911.249.003 1.656.059 2.012-.111.22-.105.116-.991.116-.991" transform="matrix(.983481 .180997 -.180996 .983484 25.356671 35.45702)"/><path d="m0 2.145c-.073.093-.27.339-.792-.062-.638-.491-1.296-1.034-1.955-1.617-.053-.047-.185-.221-.09-.394.223-.411.432-.223.563-.141.64.406 1.388.894 2.079 1.439.226.179.415.497.195.775" transform="matrix(.983481 .180997 -.180996 .983484 18.617648 36.448957)"/><path d="m0 1.777c-.083.113-.369.205-.45.128-.486-.464-.92-1.007-1.346-1.524-.041-.05-.17-.204-.141-.329.04-.171.138-.207.25-.232s.232.049.326.131c.54.474.958.951 1.361 1.387.076.081.082.327 0 .439" transform="matrix(.983481 .180997 -.180996 .983484 21.913796 41.280452)"/></g></g></svg>