<svg height="551.571059pt" preserveAspectRatio="xMidYMid meet" viewBox="0 0 413.153545 551.571059" width="413.153545pt" xmlns="http://www.w3.org/2000/svg"><path d="m2579 5785c-374-52-751-274-979-576-83-111-183-309-221-442-26-90-29-115-29-268 0-142 4-182 24-257 53-196 173-398 303-507 265-223 573-332 910-320 368 13 675 184 810 453 70 138 84 203 83 379 0 144-3 166-30 247-103 312-271 460-593 519-260 48-480-7-617-155-115-124-154-261-130-455 15-127 30-173 72-217s78-59 142-59c70 0 117 28 153 92 20 37 26 68 32 163 9 141 25 178 88 207 50 23 146 27 212 9 56-15 149-111 189-194 41-85 43-186 5-260-68-133-286-248-470-248-173 0-392 87-534 213-44 40-67 73-103 147-58 120-73 193-64 305 22 261 208 510 486 651 150 76 271 105 433 105 120 0 140-3 228-33 223-77 481-285 627-507 102-154 186-358 238-574 54-225 65-330 66-607 1-315-18-468-100-813-93-393-192-674-408-1166-91-207-267-621-355-832-4-11-9 18-10 66-8 208-158 504-354 698-109 108-251 209-376 268-293 137-657 150-715 26-23-47-22-68 10-213 15-68 36-166 46-218 42-196 102-344 197-484 194-286 533-488 938-558 54-9 100-17 102-18 1-1-24-78-56-173-31-94-57-173-57-175s120-4 267-4h267l12 39c67 210 176 498 373 990 128 321 249 627 268 680 28 81 38 98 60 104 14 3 83-1 153-11 208-27 375-32 495-13 273 42 489 140 700 318 173 146 263 292 309 501 15 69 15 90 5 126-32 109-90 168-200 203-83 27-389 27-514 0-176-38-350-104-473-178-60-36-191-139-230-180-32-33-64-52-50-30 7 11 66 296 85 407 55 328 73 747 44 1015-69 649-329 1163-762 1513-169 136-395 247-578 286-97 20-326 28-424 15z" transform="matrix(.095238 0 0 -.095238 -128.559238 551.571059)"/></svg>